HIERARCHY
ROOT Hips
{
  OFFSET 0 0 0
  CHANNELS 6 Xposition Yposition Zposition Zrotation Yrotation Xrotation
  JOINT LeftThigh
  {
    OFFSET 8.409438 0 -5.917753
    CHANNELS 3 Zrotation Yrotation Xrotation
    JOINT LeftLeg
    {
      OFFSET 0 0 -42.358652
      CHANNELS 3 Zrotation Yrotation Xrotation
      JOINT LeftFoot
      {
        OFFSET 0 0 -39.357303
        CHANNELS 3 Zrotation Yrotation Xrotation
      }
    }
  }
  JOINT RightThigh
  {
    OFFSET -8.409438 0 -5.917753
    CHANNELS 3 Zrotation Yrotation Xrotation
    JOINT RightLeg
    {
      OFFSET 0 0 -42.358652
      CHANNELS 3 Zrotation Yrotation Xrotation
      JOINT RightFoot
      {
        OFFSET 0 0 -39.357303
        CHANNELS 3 Zrotation Yrotation Xrotation
      }
    }
  }
  JOINT SpineLow
  {
    OFFSET 0 0 4.719101
    CHANNELS 3 Zrotation Yrotation Xrotation
    JOINT SpineMid
    {
      OFFSET 0 0 12.899191
      CHANNELS 3 Zrotation Yrotation Xrotation
      JOINT Chest
      {
        OFFSET 0 0 12.899191
        CHANNELS 3 Zrotation Yrotation Xrotation
        JOINT LeftShoulder
        {
          OFFSET 7.550562 1.41573 9.438202
          CHANNELS 3 Zrotation Yrotation Xrotation
          JOINT LeftArm
          {
            OFFSET 9.155056 0 4.247191
            CHANNELS 3 Zrotation Yrotation Xrotation
            JOINT LeftForearm
            {
              OFFSET 0 0 25.771955
              CHANNELS 3 Zrotation Yrotation Xrotation
              JOINT LeftHand
              {
                OFFSET 0 0 25.197169
                CHANNELS 3 Zrotation Yrotation Xrotation
              }
            }
          }
        }
        JOINT RightShoulder
        {
          OFFSET -7.550562 1.41573 9.438202
          CHANNELS 3 Zrotation Yrotation Xrotation
          JOINT RightArm
          {
            OFFSET -9.155056 0 4.247191
            CHANNELS 3 Zrotation Yrotation Xrotation
            JOINT RightForearm
            {
              OFFSET 0 0 -25.771955
              CHANNELS 3 Zrotation Yrotation Xrotation
              JOINT RightHand
              {
                OFFSET 0 0 -25.197169
                CHANNELS 3 Zrotation Yrotation Xrotation
              }
            }
          }
        }
        JOINT Neck
        {
          OFFSET 0 0 15.101124
          CHANNELS 3 Zrotation Yrotation Xrotation
          JOINT Head
          {
            OFFSET 0 0 11.325843
            CHANNELS 3 Zrotation Yrotation Xrotation
            End Site
            {
              OFFSET 0 0 14.157303
            }
          }
        }
      }
    }
  }
}
MOTION
Frames: 5
Frame Time: 0.0
0.0  93.25843  0.0  15.427532  -7.903708  -115.880681  41.369778  -12.581731  -99.096258  5.110408  19.554581  68.121094  3.289515  -6.804336  3.150416  -11.29049  10.638274  3.36573  12.261813  10.331036  25.767872  9.295065  4.507978  2.317099  1.272598  0.674983  2.87947  3.553873  1.690031  7.905363  3.553873  1.690031  7.905362  -25.283123  25.43602  3.496561  -157.70468  63.050246  -109.136993  -33.329918  16.309983  87.517953  73.052863  -30.149777  -11.254736  0.928216  -10.043983  18.406088  114.77677  33.498738  43.559575  -5.795315  -18.95992  -121.911253  55.227428  8.083877  -6.838248  3.274381  4.942942  12.954836  2.35048  3.778707  9.683895  
0.0  93.25843  0.0  15.328492  -7.412601  -115.63544  39.521417  -11.505884  -98.176668  1.888361  17.99373  57.406507  3.071537  -7.363132  3.554803  -11.414304  10.428573  3.21704  12.353984  10.442402  26.025009  9.345035  4.656097  2.30655  1.180051  0.675328  2.850616  3.300619  1.703522  7.824307  3.300619  1.703522  7.824306  -25.46621  25.520335  3.241893  -157.545833  63.394902  -108.944172  -33.61448  16.305476  87.428237  73.090719  -30.198994  -11.259656  0.950736  -9.966057  18.407395  114.306945  33.565782  43.151258  -5.684521  -18.823591  -121.962921  54.91502  8.169713  -6.807753  3.228733  4.965545  12.880714  2.316341  3.794282  9.628522  
0.0  93.25843  0.0  15.136952  -7.232368  -115.504298  38.027393  -11.285023  -96.741341  -0.859449  15.724937  46.807544  2.434012  -7.457676  4.016303  -10.833204  9.95044  3.430963  12.397535  10.410126  26.265633  9.312068  4.627626  2.277493  1.163952  0.653179  2.860227  3.254243  1.644524  7.849006  3.254243  1.644524  7.849007  -25.680549  25.532578  3.084934  -157.073576  63.630973  -108.533765  -34.107628  15.429623  86.699509  71.744654  -30.830656  -10.469753  0.709899  -9.881454  18.205113  113.973882  33.571648  42.709536  -5.739319  -18.776649  -122.085757  54.208796  8.005609  -6.978909  3.085616  4.90289  12.653108  2.212171  3.743021  9.459524  
0.0  93.25843  0.0  14.887314  -6.924661  -115.217459  37.648351  -13.21039  -95.84922  -0.900266  14.235893  38.142548  1.768401  -7.503783  4.376106  -10.231792  9.405959  3.577798  12.125567  10.301429  26.344339  9.148481  4.732284  2.338408  1.133091  0.629342  2.835777  3.166595  1.584351  7.780232  3.166595  1.584351  7.780232  -25.881618  25.568757  3.166784  -156.312391  63.746001  -107.672012  -34.181654  15.376986  86.807807  71.736257  -30.812788  -10.363501  0.560909  -9.799488  18.251272  113.76621  33.690971  42.385535  -5.434329  -19.05708  -122.225664  53.773007  8.066033  -7.119814  2.948562  4.832497  12.423523  2.11268  3.686177  9.289014  
0.0  93.25843  0.0  14.99078  -7.846128  -115.806495  39.345708  -18.343144  -95.609394  1.798968  13.284854  33.321092  1.763282  -7.118186  3.926068  -8.401512  8.817797  4.536943  11.798774  10.225986  26.41306  8.914893  4.896608  2.39086  1.302679  0.578668  2.916874  3.625043  1.421613  8.002643  3.625044  1.421613  8.002643  -25.974764  25.662095  3.342732  -155.53746  63.734229  -106.848284  -34.22276  15.13188  86.849322  71.468591  -30.853987  -10.041776  0.492697  -9.695661  18.432626  113.475044  34.129048  42.279121  -4.806958  -19.637131  -122.554105  53.448115  8.118385  -7.338752  2.833413  4.775789  12.245584  2.028884  3.640402  9.156921  
